<svg id="Шар_1" data-name="Шар 1" xmlns="http://www.w3.org/2000/svg" width="15" height="15" viewBox="0 0 15 15"><defs><style>.cls-1{fill:#e94542;fill-rule:evenodd;}</style></defs><path class="cls-1" d="M14.23,6.54a5.16,5.16,0,0,1-.65,1.86,3,3,0,0,1,0,.43,2.69,2.69,0,0,1-.41,1.42,1.42,1.42,0,0,0-.18.64,4.14,4.14,0,0,0,0,.61c0,.22,0,.46.08.69-.26-.08-.55-.15-.81-.21a5.94,5.94,0,0,0-.67-.12,1.74,1.74,0,0,0-.67,0,5.55,5.55,0,0,1-3.59-.08H7a9,9,0,0,1-2.3-.3,6.17,6.17,0,0,0,4.63,2,6.82,6.82,0,0,0,2.05-.31h.16a3.16,3.16,0,0,1,.5.09c.4.09.84.22,1.19.33a1,1,0,0,0,1.31-1.15,9.44,9.44,0,0,1-.14-1.05,2.91,2.91,0,0,1,0-.42s0-.07,0-.08a4,4,0,0,0-.13-4.37Z"/><path class="cls-1" d="M3.35,3.29A3.23,3.23,0,0,0,2,5.83,2.76,2.76,0,0,0,2.3,7.17a1.12,1.12,0,0,1,.12.44,2.28,2.28,0,0,1,0,.37,5.58,5.58,0,0,1-.14.76c-.07.31-.16.64-.25.95.35-.13.73-.26,1.1-.37A7.55,7.55,0,0,1,4,9.12a1.73,1.73,0,0,1,.84,0A6.54,6.54,0,0,0,7,9.49a5.94,5.94,0,0,0,3.6-1.13A3.23,3.23,0,0,0,12,5.83a3.23,3.23,0,0,0-1.4-2.54A5.94,5.94,0,0,0,7,2.16,5.94,5.94,0,0,0,3.35,3.29ZM2.54,2.23A7.28,7.28,0,0,1,7,.83a7.28,7.28,0,0,1,4.41,1.4,4.57,4.57,0,0,1,1.92,3.6,4.55,4.55,0,0,1-1.92,3.59A7.28,7.28,0,0,1,7,10.83a8,8,0,0,1-2.53-.41.74.74,0,0,0-.22,0,5.52,5.52,0,0,0-.7.16c-.53.16-1.14.38-1.6.56A1,1,0,0,1,.57,9.89c.14-.43.31-1,.41-1.45a3.36,3.36,0,0,0,.11-.58V7.75A4.23,4.23,0,0,1,.61,5.83,4.55,4.55,0,0,1,2.54,2.23Z"/></svg>