<svg id="Шар_1" data-name="Шар 1" xmlns="http://www.w3.org/2000/svg" width="15" height="15" viewBox="0 0 15 15"><defs><style>.cls-1{fill:#e94542;fill-rule:evenodd;}</style></defs><path class="cls-1" d="M7.32.07a.7.7,0,0,1,.6,0L14.59,3.4a.67.67,0,0,1,0,1.2L7.92,7.93a.7.7,0,0,1-.6,0L.66,4.6a.67.67,0,0,1,0-1.2ZM2.45,4,7.62,6.59,12.8,4,7.62,1.41Z"/><path class="cls-1" d="M.36,7a.66.66,0,0,1,.89-.3L7.62,9.92,14,6.74a.67.67,0,1,1,.6,1.19L7.92,11.26a.64.64,0,0,1-.6,0L.66,7.93A.67.67,0,0,1,.36,7Z"/><path class="cls-1" d="M.36,10.37a.66.66,0,0,1,.89-.3l6.37,3.18L14,10.07a.68.68,0,0,1,.9.3.66.66,0,0,1-.3.89L7.92,14.6a.7.7,0,0,1-.6,0L.66,11.26A.66.66,0,0,1,.36,10.37Z"/></svg>