<svg id="Шар_1" data-name="Шар 1" xmlns="http://www.w3.org/2000/svg" width="15" height="15" viewBox="0 0 15 15"><defs><style>.cls-1{fill:#e94542;fill-rule:evenodd;}</style></defs><path class="cls-1" d="M9,1.5a.28.28,0,0,0-.23.13h0l-3.06,5v6.58h5.72a.27.27,0,0,0,.26-.21h0l1.7-6.64A.26.26,0,0,0,13.12,6h-2.6a1.71,1.71,0,0,1-1.19-.46,1.39,1.39,0,0,1-.39-1.3l.48-2.43a.26.26,0,0,0-.26-.31ZM4.36,13.17V7.07H2a.27.27,0,0,0-.27.26h0l0,5.57a.27.27,0,0,0,.26.27Zm.29-7.43L7.61,1A1.56,1.56,0,0,1,9,.17h.18a1.6,1.6,0,0,1,1.57,1.9L10.25,4.5s0,.06,0,.06a0,0,0,0,0,0,0,.37.37,0,0,0,.26.08h2.6a1.59,1.59,0,0,1,1.55,1.94h0L13,13.26a1.59,1.59,0,0,1-1.56,1.24H2A1.59,1.59,0,0,1,.36,12.89h0l0-5.57A1.6,1.6,0,0,1,2,5.74Z"/></svg>