<svg id="Шар_1" data-name="Шар 1" xmlns="http://www.w3.org/2000/svg" width="16" height="15" viewBox="0 0 16 15"><defs><style>.cls-1{fill:#9a9ca5;fill-rule:evenodd;}</style></defs><path class="cls-1" d="M6.78,1.47a1.33,1.33,0,0,1,2.44,0l1.4,3.23L14.13,5a1.33,1.33,0,0,1,.75,2.32L12.24,9.68,13,13.12a1.34,1.34,0,0,1-2,1.44L8,12.77,5,14.56a1.33,1.33,0,0,1-2-1.44l.77-3.44L1.12,7.35A1.33,1.33,0,0,1,1.87,5L5.38,4.7ZM9.4,5.23,8,2,6.6,5.23A1.32,1.32,0,0,1,5.5,6L2,6.36,4.64,8.69A1.34,1.34,0,0,1,5.06,10l-.77,3.44,3-1.79a1.33,1.33,0,0,1,1.36,0l3,1.79L10.94,10a1.34,1.34,0,0,1,.42-1.28L14,6.36,10.5,6A1.32,1.32,0,0,1,9.4,5.23Z"/></svg>