<svg width="115" height="15" viewBox="0 0 115 15" fill="none" xmlns="http://www.w3.org/2000/svg">
<path d="M7.064 10.224V12H0.288V0.431999H2.44V10.224H7.064ZM11.4986 3.664C12.1066 3.664 12.6586 3.76267 13.1546 3.96C13.656 4.15733 14.0826 4.43733 14.4346 4.8C14.792 5.16267 15.0666 5.60533 15.2586 6.128C15.4506 6.65067 15.5466 7.23467 15.5466 7.88C15.5466 8.53067 15.4506 9.11733 15.2586 9.64C15.0666 10.1627 14.792 10.608 14.4346 10.976C14.0826 11.344 13.656 11.6267 13.1546 11.824C12.6586 12.0213 12.1066 12.12 11.4986 12.12C10.8853 12.12 10.328 12.0213 9.82663 11.824C9.32529 11.6267 8.89596 11.344 8.53863 10.976C8.18663 10.608 7.91196 10.1627 7.71463 9.64C7.52263 9.11733 7.42663 8.53067 7.42663 7.88C7.42663 7.23467 7.52263 6.65067 7.71463 6.128C7.91196 5.60533 8.18663 5.16267 8.53863 4.8C8.89596 4.43733 9.32529 4.15733 9.82663 3.96C10.328 3.76267 10.8853 3.664 11.4986 3.664ZM11.4986 10.6C12.1813 10.6 12.6853 10.3707 13.0106 9.912C13.3413 9.45333 13.5066 8.78133 13.5066 7.896C13.5066 7.01067 13.3413 6.336 13.0106 5.872C12.6853 5.408 12.1813 5.176 11.4986 5.176C10.8053 5.176 10.2906 5.41067 9.95463 5.88C9.62396 6.344 9.45863 7.016 9.45863 7.896C9.45863 8.776 9.62396 9.448 9.95463 9.912C10.2906 10.3707 10.8053 10.6 11.4986 10.6ZM19.9916 7.696C20.237 7.696 20.4503 7.664 20.6316 7.6C20.813 7.53067 20.9623 7.43733 21.0796 7.32C21.2023 7.20267 21.293 7.06133 21.3516 6.896C21.4156 6.73067 21.4476 6.54933 21.4476 6.352C21.4476 5.94667 21.325 5.62667 21.0796 5.392C20.8396 5.152 20.477 5.032 19.9916 5.032C19.5063 5.032 19.141 5.152 18.8956 5.392C18.6556 5.62667 18.5356 5.94667 18.5356 6.352C18.5356 6.544 18.565 6.72267 18.6236 6.888C18.6876 7.05333 18.7783 7.19733 18.8956 7.32C19.0183 7.43733 19.1703 7.53067 19.3516 7.6C19.5383 7.664 19.7516 7.696 19.9916 7.696ZM22.2236 12.368C22.2236 12.208 22.1756 12.0773 22.0796 11.976C21.9836 11.8747 21.853 11.7973 21.6876 11.744C21.5223 11.6853 21.3276 11.6427 21.1036 11.616C20.885 11.5893 20.6503 11.5707 20.3996 11.56C20.1543 11.544 19.8983 11.5307 19.6316 11.52C19.3703 11.5093 19.1143 11.488 18.8636 11.456C18.645 11.5787 18.4663 11.7227 18.3276 11.888C18.1943 12.0533 18.1276 12.2453 18.1276 12.464C18.1276 12.608 18.1623 12.7413 18.2316 12.864C18.3063 12.992 18.421 13.1013 18.5756 13.192C18.7356 13.2827 18.941 13.352 19.1916 13.4C19.4423 13.4533 19.749 13.48 20.1116 13.48C20.4796 13.48 20.797 13.4507 21.0636 13.392C21.3303 13.3387 21.549 13.2613 21.7196 13.16C21.8956 13.064 22.0236 12.9467 22.1036 12.808C22.1836 12.6747 22.2236 12.528 22.2236 12.368ZM24.1916 4.072V4.808C24.1916 5.04267 24.0503 5.18667 23.7676 5.24L23.0316 5.376C23.1436 5.65867 23.1996 5.968 23.1996 6.304C23.1996 6.70933 23.117 7.07733 22.9516 7.408C22.7916 7.73333 22.5676 8.01067 22.2796 8.24C21.9916 8.46933 21.6503 8.648 21.2556 8.776C20.8663 8.89867 20.445 8.96 19.9916 8.96C19.8316 8.96 19.677 8.952 19.5276 8.936C19.3783 8.92 19.2316 8.89867 19.0876 8.872C18.8316 9.02667 18.7036 9.2 18.7036 9.392C18.7036 9.55733 18.7783 9.68 18.9276 9.76C19.0823 9.83467 19.285 9.888 19.5356 9.92C19.7863 9.952 20.0716 9.97333 20.3916 9.984C20.7116 9.98933 21.0396 10.0053 21.3756 10.032C21.7116 10.0587 22.0396 10.1067 22.3596 10.176C22.6796 10.24 22.965 10.344 23.2156 10.488C23.4663 10.632 23.6663 10.8293 23.8156 11.08C23.9703 11.3253 24.0476 11.6427 24.0476 12.032C24.0476 12.3947 23.957 12.7467 23.7756 13.088C23.5996 13.4293 23.341 13.7333 22.9996 14C22.6636 14.2667 22.2476 14.48 21.7516 14.64C21.261 14.8053 20.701 14.888 20.0716 14.888C19.453 14.888 18.9143 14.8267 18.4556 14.704C17.997 14.5867 17.6156 14.4267 17.3116 14.224C17.0076 14.0267 16.781 13.7973 16.6316 13.536C16.4823 13.2747 16.4076 13.0027 16.4076 12.72C16.4076 12.336 16.5223 12.016 16.7516 11.76C16.9863 11.4987 17.3063 11.2907 17.7116 11.136C17.493 11.024 17.3196 10.8747 17.1916 10.688C17.0636 10.5013 16.9996 10.256 16.9996 9.952C16.9996 9.82933 17.021 9.704 17.0636 9.576C17.1116 9.44267 17.1783 9.312 17.2636 9.184C17.3543 9.056 17.4663 8.936 17.5996 8.824C17.733 8.70667 17.8903 8.60267 18.0716 8.512C17.6556 8.288 17.3276 7.98933 17.0876 7.616C16.853 7.24267 16.7356 6.80533 16.7356 6.304C16.7356 5.89867 16.8156 5.53333 16.9756 5.208C17.141 4.87733 17.3676 4.59733 17.6556 4.368C17.949 4.13333 18.293 3.95467 18.6876 3.832C19.0876 3.70933 19.5223 3.648 19.9916 3.648C20.3436 3.648 20.6743 3.68533 20.9836 3.76C21.293 3.82933 21.5756 3.93333 21.8316 4.072H24.1916ZM31.3834 3.792V12H29.3994V3.792H31.3834ZM31.6554 1.4C31.6554 1.57067 31.6207 1.73067 31.5514 1.88C31.482 2.02933 31.3887 2.16 31.2714 2.272C31.1594 2.384 31.026 2.47467 30.8714 2.544C30.7167 2.608 30.5514 2.64 30.3754 2.64C30.2047 2.64 30.042 2.608 29.8874 2.544C29.738 2.47467 29.6074 2.384 29.4954 2.272C29.3834 2.16 29.2927 2.02933 29.2234 1.88C29.1594 1.73067 29.1274 1.57067 29.1274 1.4C29.1274 1.224 29.1594 1.05867 29.2234 0.903999C29.2927 0.749333 29.3834 0.616 29.4954 0.504C29.6074 0.392 29.738 0.304 29.8874 0.24C30.042 0.170666 30.2047 0.136 30.3754 0.136C30.5514 0.136 30.7167 0.170666 30.8714 0.24C31.026 0.304 31.1594 0.392 31.2714 0.504C31.3887 0.616 31.482 0.749333 31.5514 0.903999C31.6207 1.05867 31.6554 1.224 31.6554 1.4ZM35.2459 4.8C35.4112 4.63467 35.5845 4.48267 35.7659 4.344C35.9525 4.2 36.1472 4.08 36.3499 3.984C36.5579 3.88267 36.7792 3.80533 37.0139 3.752C37.2485 3.69333 37.5045 3.664 37.7819 3.664C38.2299 3.664 38.6272 3.74133 38.9739 3.896C39.3205 4.04533 39.6085 4.25867 39.8379 4.536C40.0725 4.808 40.2485 5.136 40.3659 5.52C40.4885 5.89867 40.5499 6.31733 40.5499 6.776V12H38.5739V6.776C38.5739 6.27467 38.4592 5.888 38.2299 5.616C38.0005 5.33867 37.6512 5.2 37.1819 5.2C36.8405 5.2 36.5205 5.27733 36.2219 5.432C35.9232 5.58667 35.6405 5.79733 35.3739 6.064V12H33.3979V3.792H34.6059C34.8619 3.792 35.0299 3.912 35.1099 4.152L35.2459 4.8ZM47.6957 12.024C47.6051 12.2693 47.4584 12.4533 47.2558 12.576C47.0584 12.6987 46.8558 12.76 46.6478 12.76H45.8078L50.4798 0.808C50.5651 0.583999 50.6958 0.413333 50.8718 0.296C51.0478 0.173333 51.2531 0.112 51.4878 0.112H52.3358L47.6957 12.024ZM61.4715 5.936C61.8768 5.936 62.2288 5.88533 62.5275 5.784C62.8315 5.68267 63.0795 5.544 63.2715 5.368C63.4688 5.18667 63.6155 4.97333 63.7115 4.728C63.8075 4.48267 63.8555 4.21333 63.8555 3.92C63.8555 3.33333 63.6608 2.88267 63.2715 2.568C62.8875 2.25333 62.2982 2.096 61.5035 2.096H60.1275V5.936H61.4715ZM67.0075 12H65.0635C64.6955 12 64.4288 11.856 64.2635 11.568L61.8315 7.864C61.7408 7.72533 61.6395 7.62667 61.5275 7.568C61.4208 7.50933 61.2608 7.48 61.0475 7.48H60.1275V12H57.9755V0.431999H61.5035C62.2875 0.431999 62.9595 0.514666 63.5195 0.679999C64.0848 0.839999 64.5462 1.06667 64.9035 1.36C65.2662 1.65333 65.5328 2.00533 65.7035 2.416C65.8742 2.82133 65.9595 3.26933 65.9595 3.76C65.9595 4.14933 65.9008 4.51733 65.7835 4.864C65.6715 5.21067 65.5062 5.52533 65.2875 5.808C65.0742 6.09067 64.8075 6.33867 64.4875 6.552C64.1728 6.76533 63.8128 6.93333 63.4075 7.056C63.5462 7.136 63.6742 7.232 63.7915 7.344C63.9088 7.45067 64.0155 7.57867 64.1115 7.728L67.0075 12ZM72.7015 6.952C72.7015 6.696 72.6642 6.456 72.5895 6.232C72.5202 6.00267 72.4135 5.80267 72.2695 5.632C72.1255 5.46133 71.9415 5.328 71.7175 5.232C71.4988 5.13067 71.2428 5.08 70.9495 5.08C70.3788 5.08 69.9282 5.24267 69.5975 5.568C69.2722 5.89333 69.0642 6.35467 68.9735 6.952H72.7015ZM68.9335 8.144C68.9655 8.56533 69.0402 8.93067 69.1575 9.24C69.2748 9.544 69.4295 9.79733 69.6215 10C69.8135 10.1973 70.0402 10.3467 70.3015 10.448C70.5682 10.544 70.8615 10.592 71.1815 10.592C71.5015 10.592 71.7762 10.5547 72.0055 10.48C72.2402 10.4053 72.4428 10.3227 72.6135 10.232C72.7895 10.1413 72.9415 10.0587 73.0695 9.984C73.2028 9.90933 73.3308 9.872 73.4535 9.872C73.6188 9.872 73.7415 9.93333 73.8215 10.056L74.3895 10.776C74.1708 11.032 73.9255 11.248 73.6535 11.424C73.3815 11.5947 73.0962 11.7333 72.7975 11.84C72.5042 11.9413 72.2028 12.0133 71.8935 12.056C71.5895 12.0987 71.2935 12.12 71.0055 12.12C70.4348 12.12 69.9042 12.0267 69.4135 11.84C68.9228 11.648 68.4962 11.368 68.1335 11C67.7708 10.6267 67.4855 10.168 67.2775 9.624C67.0695 9.07467 66.9655 8.44 66.9655 7.72C66.9655 7.16 67.0562 6.63467 67.2375 6.144C67.4188 5.648 67.6775 5.21867 68.0135 4.856C68.3548 4.488 68.7682 4.19733 69.2535 3.984C69.7442 3.77067 70.2962 3.664 70.9095 3.664C71.4268 3.664 71.9042 3.74667 72.3415 3.912C72.7788 4.07733 73.1548 4.32 73.4695 4.64C73.7842 4.95467 74.0295 5.344 74.2055 5.808C74.3868 6.26667 74.4775 6.792 74.4775 7.384C74.4775 7.68267 74.4455 7.88533 74.3815 7.992C74.3175 8.09333 74.1948 8.144 74.0135 8.144H68.9335ZM78.9604 7.696C79.2057 7.696 79.419 7.664 79.6004 7.6C79.7817 7.53067 79.931 7.43733 80.0484 7.32C80.171 7.20267 80.2617 7.06133 80.3204 6.896C80.3844 6.73067 80.4164 6.54933 80.4164 6.352C80.4164 5.94667 80.2937 5.62667 80.0484 5.392C79.8084 5.152 79.4457 5.032 78.9604 5.032C78.475 5.032 78.1097 5.152 77.8644 5.392C77.6244 5.62667 77.5044 5.94667 77.5044 6.352C77.5044 6.544 77.5337 6.72267 77.5924 6.888C77.6564 7.05333 77.747 7.19733 77.8644 7.32C77.987 7.43733 78.139 7.53067 78.3204 7.6C78.507 7.664 78.7204 7.696 78.9604 7.696ZM81.1924 12.368C81.1924 12.208 81.1444 12.0773 81.0484 11.976C80.9524 11.8747 80.8217 11.7973 80.6564 11.744C80.491 11.6853 80.2964 11.6427 80.0724 11.616C79.8537 11.5893 79.619 11.5707 79.3684 11.56C79.123 11.544 78.867 11.5307 78.6004 11.52C78.339 11.5093 78.083 11.488 77.8324 11.456C77.6137 11.5787 77.435 11.7227 77.2964 11.888C77.163 12.0533 77.0964 12.2453 77.0964 12.464C77.0964 12.608 77.131 12.7413 77.2004 12.864C77.275 12.992 77.3897 13.1013 77.5444 13.192C77.7044 13.2827 77.9097 13.352 78.1604 13.4C78.411 13.4533 78.7177 13.48 79.0804 13.48C79.4484 13.48 79.7657 13.4507 80.0324 13.392C80.299 13.3387 80.5177 13.2613 80.6884 13.16C80.8644 13.064 80.9924 12.9467 81.0724 12.808C81.1524 12.6747 81.1924 12.528 81.1924 12.368ZM83.1604 4.072V4.808C83.1604 5.04267 83.019 5.18667 82.7364 5.24L82.0004 5.376C82.1124 5.65867 82.1684 5.968 82.1684 6.304C82.1684 6.70933 82.0857 7.07733 81.9204 7.408C81.7604 7.73333 81.5364 8.01067 81.2484 8.24C80.9604 8.46933 80.619 8.648 80.2244 8.776C79.835 8.89867 79.4137 8.96 78.9604 8.96C78.8004 8.96 78.6457 8.952 78.4964 8.936C78.347 8.92 78.2004 8.89867 78.0564 8.872C77.8004 9.02667 77.6724 9.2 77.6724 9.392C77.6724 9.55733 77.747 9.68 77.8964 9.76C78.051 9.83467 78.2537 9.888 78.5044 9.92C78.755 9.952 79.0404 9.97333 79.3604 9.984C79.6804 9.98933 80.0084 10.0053 80.3444 10.032C80.6804 10.0587 81.0084 10.1067 81.3284 10.176C81.6484 10.24 81.9337 10.344 82.1844 10.488C82.435 10.632 82.635 10.8293 82.7844 11.08C82.939 11.3253 83.0164 11.6427 83.0164 12.032C83.0164 12.3947 82.9257 12.7467 82.7444 13.088C82.5684 13.4293 82.3097 13.7333 81.9684 14C81.6324 14.2667 81.2164 14.48 80.7204 14.64C80.2297 14.8053 79.6697 14.888 79.0404 14.888C78.4217 14.888 77.883 14.8267 77.4244 14.704C76.9657 14.5867 76.5844 14.4267 76.2804 14.224C75.9764 14.0267 75.7497 13.7973 75.6004 13.536C75.451 13.2747 75.3764 13.0027 75.3764 12.72C75.3764 12.336 75.491 12.016 75.7204 11.76C75.955 11.4987 76.275 11.2907 76.6804 11.136C76.4617 11.024 76.2884 10.8747 76.1604 10.688C76.0324 10.5013 75.9684 10.256 75.9684 9.952C75.9684 9.82933 75.9897 9.704 76.0324 9.576C76.0804 9.44267 76.147 9.312 76.2324 9.184C76.323 9.056 76.435 8.936 76.5684 8.824C76.7017 8.70667 76.859 8.60267 77.0404 8.512C76.6244 8.288 76.2964 7.98933 76.0564 7.616C75.8217 7.24267 75.7044 6.80533 75.7044 6.304C75.7044 5.89867 75.7844 5.53333 75.9444 5.208C76.1097 4.87733 76.3364 4.59733 76.6244 4.368C76.9177 4.13333 77.2617 3.95467 77.6564 3.832C78.0564 3.70933 78.491 3.648 78.9604 3.648C79.3124 3.648 79.643 3.68533 79.9524 3.76C80.2617 3.82933 80.5444 3.93333 80.8004 4.072H83.1604ZM86.4615 3.792V12H84.4775V3.792H86.4615ZM86.7335 1.4C86.7335 1.57067 86.6988 1.73067 86.6295 1.88C86.5602 2.02933 86.4668 2.16 86.3495 2.272C86.2375 2.384 86.1042 2.47467 85.9495 2.544C85.7948 2.608 85.6295 2.64 85.4535 2.64C85.2828 2.64 85.1202 2.608 84.9655 2.544C84.8162 2.47467 84.6855 2.384 84.5735 2.272C84.4615 2.16 84.3708 2.02933 84.3015 1.88C84.2375 1.73067 84.2055 1.57067 84.2055 1.4C84.2055 1.224 84.2375 1.05867 84.3015 0.903999C84.3708 0.749333 84.4615 0.616 84.5735 0.504C84.6855 0.392 84.8162 0.304 84.9655 0.24C85.1202 0.170666 85.2828 0.136 85.4535 0.136C85.6295 0.136 85.7948 0.170666 85.9495 0.24C86.1042 0.304 86.2375 0.392 86.3495 0.504C86.4668 0.616 86.5602 0.749333 86.6295 0.903999C86.6988 1.05867 86.7335 1.224 86.7335 1.4ZM93.484 5.392C93.4307 5.47733 93.3747 5.53867 93.316 5.576C93.2573 5.608 93.1827 5.624 93.092 5.624C92.996 5.624 92.892 5.59733 92.78 5.544C92.6733 5.49067 92.548 5.432 92.404 5.368C92.26 5.29867 92.0947 5.23733 91.908 5.184C91.7267 5.13067 91.5107 5.104 91.26 5.104C90.8707 5.104 90.564 5.18667 90.34 5.352C90.1213 5.51733 90.012 5.73333 90.012 6C90.012 6.176 90.068 6.32533 90.18 6.448C90.2973 6.56533 90.4493 6.66933 90.636 6.76C90.828 6.85067 91.044 6.93333 91.284 7.008C91.524 7.07733 91.7667 7.15467 92.012 7.24C92.2627 7.32533 92.508 7.424 92.748 7.536C92.988 7.64267 93.2013 7.78133 93.388 7.952C93.58 8.11733 93.732 8.31733 93.844 8.552C93.9613 8.78667 94.02 9.06933 94.02 9.4C94.02 9.79467 93.948 10.16 93.804 10.496C93.6653 10.8267 93.4573 11.1147 93.18 11.36C92.9027 11.6 92.5587 11.7893 92.148 11.928C91.7427 12.0613 91.2733 12.128 90.74 12.128C90.4573 12.128 90.18 12.1013 89.908 12.048C89.6413 12 89.3827 11.9307 89.132 11.84C88.8867 11.7493 88.6573 11.6427 88.444 11.52C88.236 11.3973 88.052 11.264 87.892 11.12L88.348 10.368C88.4067 10.2773 88.476 10.208 88.556 10.16C88.636 10.112 88.7373 10.088 88.86 10.088C88.9827 10.088 89.0973 10.1227 89.204 10.192C89.316 10.2613 89.444 10.336 89.588 10.416C89.732 10.496 89.9 10.5707 90.092 10.64C90.2893 10.7093 90.5373 10.744 90.836 10.744C91.0707 10.744 91.2707 10.7173 91.436 10.664C91.6067 10.6053 91.7453 10.5307 91.852 10.44C91.964 10.3493 92.044 10.2453 92.092 10.128C92.1453 10.0053 92.172 9.88 92.172 9.752C92.172 9.56 92.1133 9.40267 91.996 9.28C91.884 9.15733 91.732 9.05067 91.54 8.96C91.3533 8.86933 91.1373 8.78933 90.892 8.72C90.652 8.64533 90.404 8.56533 90.148 8.48C89.8973 8.39467 89.6493 8.296 89.404 8.184C89.164 8.06667 88.948 7.92 88.756 7.744C88.5693 7.568 88.4173 7.352 88.3 7.096C88.188 6.84 88.132 6.53067 88.132 6.168C88.132 5.832 88.1987 5.512 88.332 5.208C88.4653 4.904 88.66 4.64 88.916 4.416C89.1773 4.18667 89.5 4.00533 89.884 3.872C90.2733 3.73333 90.7213 3.664 91.228 3.664C91.7933 3.664 92.308 3.75733 92.772 3.944C93.236 4.13067 93.6227 4.376 93.932 4.68L93.484 5.392ZM98.2433 12.128C97.5286 12.128 96.9793 11.928 96.5953 11.528C96.2166 11.1227 96.0273 10.5653 96.0273 9.856V5.272H95.1873C95.0806 5.272 94.9899 5.23733 94.9153 5.168C94.8406 5.09867 94.8033 4.99467 94.8033 4.856V4.072L96.1233 3.856L96.5393 1.616C96.5659 1.50933 96.6166 1.42667 96.6913 1.368C96.7659 1.30933 96.8619 1.28 96.9793 1.28H98.0033V3.864H100.195V5.272H98.0033V9.72C98.0033 9.976 98.0646 10.176 98.1873 10.32C98.3153 10.464 98.4886 10.536 98.7073 10.536C98.8299 10.536 98.9313 10.5227 99.0113 10.496C99.0966 10.464 99.1686 10.432 99.2273 10.4C99.2913 10.368 99.3473 10.3387 99.3953 10.312C99.4433 10.28 99.4913 10.264 99.5393 10.264C99.5979 10.264 99.6459 10.28 99.6833 10.312C99.7206 10.3387 99.7606 10.3813 99.8033 10.44L100.395 11.4C100.107 11.64 99.7766 11.8213 99.4033 11.944C99.0299 12.0667 98.6433 12.128 98.2433 12.128ZM106.686 6.952C106.686 6.696 106.649 6.456 106.574 6.232C106.505 6.00267 106.398 5.80267 106.254 5.632C106.11 5.46133 105.926 5.328 105.702 5.232C105.483 5.13067 105.227 5.08 104.934 5.08C104.363 5.08 103.913 5.24267 103.582 5.568C103.257 5.89333 103.049 6.35467 102.958 6.952H106.686ZM102.918 8.144C102.95 8.56533 103.025 8.93067 103.142 9.24C103.259 9.544 103.414 9.79733 103.606 10C103.798 10.1973 104.025 10.3467 104.286 10.448C104.553 10.544 104.846 10.592 105.166 10.592C105.486 10.592 105.761 10.5547 105.99 10.48C106.225 10.4053 106.427 10.3227 106.598 10.232C106.774 10.1413 106.926 10.0587 107.054 9.984C107.187 9.90933 107.315 9.872 107.438 9.872C107.603 9.872 107.726 9.93333 107.806 10.056L108.374 10.776C108.155 11.032 107.91 11.248 107.638 11.424C107.366 11.5947 107.081 11.7333 106.782 11.84C106.489 11.9413 106.187 12.0133 105.878 12.056C105.574 12.0987 105.278 12.12 104.99 12.12C104.419 12.12 103.889 12.0267 103.398 11.84C102.907 11.648 102.481 11.368 102.118 11C101.755 10.6267 101.47 10.168 101.262 9.624C101.054 9.07467 100.95 8.44 100.95 7.72C100.95 7.16 101.041 6.63467 101.222 6.144C101.403 5.648 101.662 5.21867 101.998 4.856C102.339 4.488 102.753 4.19733 103.238 3.984C103.729 3.77067 104.281 3.664 104.894 3.664C105.411 3.664 105.889 3.74667 106.326 3.912C106.763 4.07733 107.139 4.32 107.454 4.64C107.769 4.95467 108.014 5.344 108.19 5.808C108.371 6.26667 108.462 6.792 108.462 7.384C108.462 7.68267 108.43 7.88533 108.366 7.992C108.302 8.09333 108.179 8.144 107.998 8.144H102.918ZM111.809 5.216C112.065 4.72533 112.369 4.34133 112.721 4.064C113.073 3.78133 113.489 3.64 113.969 3.64C114.347 3.64 114.651 3.72267 114.881 3.888L114.753 5.368C114.726 5.464 114.686 5.53333 114.633 5.576C114.585 5.61333 114.518 5.632 114.433 5.632C114.353 5.632 114.233 5.61867 114.073 5.592C113.918 5.56533 113.766 5.552 113.617 5.552C113.398 5.552 113.203 5.584 113.033 5.648C112.862 5.712 112.707 5.80533 112.569 5.928C112.435 6.04533 112.315 6.18933 112.209 6.36C112.107 6.53067 112.011 6.72533 111.921 6.944V12H109.945V3.792H111.105C111.307 3.792 111.449 3.82933 111.529 3.904C111.609 3.97333 111.662 4.10133 111.689 4.288L111.809 5.216Z" fill="#424551"/>
</svg>
